# xmcd CD database file
#
# Track frame offsets:
#	150
#	23935
#	44065
#	56522
#	70222
#	86470
#	98672
#	115785
#	131690
#	154342
#	166352
#	182437
#	218927
#
# Disc length: 3079 seconds
#
# Revision: 0
# Processed by: cddbd v1.5.2PL0 Copyright (c) Steve Scherf et al.
# Submitted via: CDex 1.51
#
DISCID=b10c050d
DTITLE=Pierre Lalonde - Aujourd'hui
DYEAR=1900
DGENRE=Québécois
TTITLE0=du milieu du pont Jacques Cartier
TTITLE1=c'est toi (i swear)
TTITLE2=Louise (remix 1997)
TTITLE3=le tombeur
TTITLE4=ma petite Alexandra
TTITLE5=Dis-moi
TTITLE6=tellement amoureux  (so much in love)
TTITLE7=Amen  (forever and ever Amen)
TTITLE8=short'n'sweet
TTITLE9=love letters in the sand
TTITLE10=chante pour le monde
TTITLE11=en héritage de nos chansonniers (medley)
TTITLE12=la leçon de piano de Pierre Lalonde (monologue de Jean-Guy Moreau)
EXTD=
EXTT0=
EXTT1=
EXTT2=
EXTT3=
EXTT4=
EXTT5=
EXTT6=
EXTT7=
EXTT8=
EXTT9=
EXTT10=
EXTT11=
EXTT12=
PLAYORDER=
